{"title":"Voglia di Tenerezza - Fancy Tenerezza","uid":6712027,"size":1076700028,"categoryP":"porn","categoryS":"movies","magnet":"?xt=urn:btih:38501af5bbc13243f3bd71db1a57bc1033b9eb2e&amp;dn=Voglia+di+Tenerezza+-+Fancy+Tenerezza&amp;tr=udp%3A%2F%2Ftracker.openbittorrent.com%3A80&amp;tr=udp%3A%2F%2Fopen.demonii.com%3A1337&amp;tr=udp%3A%2F%2Ftracker.coppersurfer.tk%3A6969&amp;tr=udp%3A%2F%2Fexodus.desync.com%3A6969","seeders":0,"leechers":0,"uploader":"silviuss","files":1,"time":1317390370,"description":"Voglia di Tenerezza - Fancy Tenerezza\n\nCover: &lt;a href=&quot;\nhttp://imagebb.org/view.php?filename=813c3543o.jpg&quot; rel=&quot;nofollow&quot; target=&quot;_NEW&quot;&gt;\nhttp://imagebb.org/view.php?filename=813c3543o.jpg&lt;/a&gt;\n\nPreview: &lt;a href=&quot;\nhttp://imagebb.org/view.php?filename=388Voglia_di_Tenerezza_s.jpg&quot; rel=&quot;nofollow&quot; target=&quot;_NEW&quot;&gt;\nhttp://imagebb.org/view.php?filename=388Voglia_di_Tenerezza_s.jpg&lt;/a&gt;\n\n\nInfo:\nFormat                           : AVI\nFormat/Info                      : Audio Video Interleave\nFile size                        : 1.00 GiB\nDuration                         : 1h 27mn\nOverall bit rate                 : 1 637 Kbps\nWriting library                  : VirtualDub build 32817/release\n\nVideo\nID                               : 0\nFormat                           : MPEG-4 Visual\nFormat settings, BVOP            : 1\nFormat settings, QPel            : No\nFormat settings, GMC             : No warppoints\nFormat settings, Matrix          : Default (H.263)\nMuxing mode                      : Packed bitstream\nCodec ID                         : DX50\nCodec ID/Hint                    : DivX 5\nDuration                         : 1h 27mn\nBit rate                         : 1 499 Kbps\nWidth                            : 512 pixels\nHeight                           : 384 pixels\nDisplay aspect ratio             : 4:3\nFrame rate                       : 25.000 fps\nColor space                      : YUV\nChroma subsampling               : 4:2:0\nBit depth                        : 8 bits\nScan type                        : Progressive\nCompression mode                 : Lossy\nBits/(Pixel*Frame)               : 0.305\nStream size                      : 940 MiB (92%)\nWriting library                  : DivX 6.6.1.4\n\nAudio\nID                               : 1\nFormat                           : MPEG Audio\nFormat version                   : Version 1\nFormat profile                   : Layer 3\nCodec ID                         : 55\nCodec ID/Hint                    : MP3\nDuration                         : 1h 27mn\nBit rate mode                    : Constant\nBit rate                         : 128 Kbps\nChannel(s)                       : 2 channels\nSampling rate                    : 48.0 KHz\nCompression mode                 : Lossy\nStream size                      : 80.3 MiB (8%)\nAlignment                        : Split accross interleaves\nInterleave, duration             : 40 ms (1.00 video frame)\nInterleave, preload duration     : 500 ms","torrent":{"xt":"urn:btih:38501af5bbc13243f3bd71db1a57bc1033b9eb2e","amp;dn":"Voglia+di+Tenerezza+-+Fancy+Tenerezza","amp;tr":["udp%3A%2F%2Ftracker.openbittorrent.com%3A80","udp%3A%2F%2Fopen.demonii.com%3A1337","udp%3A%2F%2Ftracker.coppersurfer.tk%3A6969","udp%3A%2F%2Fexodus.desync.com%3A6969"],"infoHash":"38501af5bbc13243f3bd71db1a57bc1033b9eb2e","infoHashBuffer":{"type":"Buffer","data":[56,80,26,245,187,193,50,67,243,189,113,219,26,87,188,16,51,185,235,46]},"announce":[],"urlList":[]}}